<?xml version="1.0" encoding="UTF-8" standalone="no"?>
<!-- Created with Inkscape (http://www.inkscape.org/) -->

<svg
   xmlns:dc="http://purl.org/dc/elements/1.1/"
   xmlns:cc="http://creativecommons.org/ns#"
   xmlns:rdf="http://www.w3.org/1999/02/22-rdf-syntax-ns#"
   xmlns:svg="http://www.w3.org/2000/svg"
   xmlns="http://www.w3.org/2000/svg"
   xmlns:sodipodi="http://sodipodi.sourceforge.net/DTD/sodipodi-0.dtd"
   xmlns:inkscape="http://www.inkscape.org/namespaces/inkscape"
   id="svg4874"
   width="96"
   height="96"
   version="1.1"
   viewBox="0 0 96 96"
   sodipodi:docname="select.svg"
   inkscape:version="0.92.3 (2405546, 2018-03-11)">
  <defs
     id="defs10" />
  <sodipodi:namedview
     pagecolor="#ffffff"
     bordercolor="#666666"
     borderopacity="1"
     objecttolerance="10"
     gridtolerance="10"
     guidetolerance="10"
     inkscape:pageopacity="0"
     inkscape:pageshadow="2"
     inkscape:window-width="2880"
     inkscape:window-height="1661"
     id="namedview8"
     showgrid="false"
     inkscape:zoom="13.906433"
     inkscape:cx="18.354005"
     inkscape:cy="35.951853"
     inkscape:window-x="0"
     inkscape:window-y="78"
     inkscape:window-maximized="1"
     inkscape:current-layer="svg4874" />
  <metadata
     id="metadata4879">
    <rdf:RDF>
      <cc:Work
         rdf:about="">
        <dc:format>image/svg+xml</dc:format>
        <dc:type
           rdf:resource="http://purl.org/dc/dcmitype/StillImage" />
        <dc:title />
      </cc:Work>
    </rdf:RDF>
  </metadata>
  <g
     id="layer1"
     transform="translate(67.857 -78.505)">
    <rect
       id="rect4782"
       transform="rotate(90)"
       x="78.505"
       y="-28.143"
       width="96"
       height="96"
       style="color:#000000;fill:none" />
    <path
       id="path4643"
       d="m-43.869 86.504-0.01172 2e-3c-5.0328 0.05818-8.7136-0.12027-11.725 1.541-1.5055 0.83064-2.6968 2.2356-3.3555 3.9902-0.65866 1.7547-0.89648 3.8364-0.89648 6.4668v56.002c0 2.6304 0.23782 4.7121 0.89648 6.4668 0.65866 1.7546 1.85 3.1596 3.3555 3.9902 3.011 1.6613 6.6918 1.4848 11.725 1.543h0.01172 48.023 0.011719c5.0328-0.0582 8.7136 0.11832 11.725-1.543 1.5055-0.83064 2.6968-2.2356 3.3555-3.9902 0.65866-1.7547 0.89648-3.8364 0.89648-6.4668v-56.002c0-2.6304-0.23782-4.7121-0.89648-6.4668-0.65866-1.7547-1.85-3.1596-3.3555-3.9903-3.011-1.6613-6.6918-1.4828-11.725-1.541l-0.011719-2e-3h-48.023zm0.01172 4h48c5.0383 0.05877 8.3519 0.23688 9.8164 1.0449 0.73364 0.40478 1.1527 0.85491 1.543 1.8945 0.39025 1.0396 0.64062 2.691 0.64062 5.0605v56.002c0 2.3696-0.25037 4.0209-0.64062 5.0606-0.39025 1.0396-0.80933 1.4898-1.543 1.8945-1.4645 0.80804-4.7782 0.98616-9.8164 1.0449h-47.977-0.02344c-5.0383-0.0588-8.3519-0.23688-9.8164-1.0449-0.73364-0.40478-1.1508-0.85491-1.541-1.8945-0.39025-1.0396-0.64258-2.691-0.64258-5.0606v-56.002c0-2.3696 0.25232-4.0209 0.64258-5.0605 0.39025-1.0396 0.80738-1.4898 1.541-1.8945 1.4645-0.80804 4.7782-0.98616 9.8164-1.0449z"
       style="block-progression:tb;color-rendering:auto;color:#000000;fill:#f9f9f9;font-feature-settings:normal;font-variant-alternates:normal;font-variant-caps:normal;font-variant-ligatures:none;font-variant-numeric:normal;font-variant-position:normal;image-rendering:auto;isolation:auto;mix-blend-mode:normal;shape-padding:0;shape-rendering:auto;solid-color:#000000;text-decoration-color:#000000;text-decoration-line:none;text-decoration-style:solid;text-indent:0;text-transform:none;white-space:normal" />
    <path
       id="path4041-9"
       d="m3.9651 110.9-27.18 23.805-15.662-13.434-2.8848 3.2617 18.541 19.508 29.266-30.795-2.0801-2.3457z"
       style="fill:#f9f9f9" />
  </g>
</svg>
